<mxfile host="app.diagrams.net" modified="2023-12-07T02:03:29.592Z" agent="Mozilla/5.0 (Windows NT 10.0; Win64; x64) AppleWebKit/537.36 (KHTML, like Gecko) Chrome/119.0.0.0 Safari/537.36" etag="XcmSVB0CliS2B66u7Vf2" version="22.1.7" type="device">
  <diagram name="PÃ¡gina-1" id="o_KEH699Q1Kgybcd8lgZ">
    <mxGraphModel dx="1647" dy="769" grid="1" gridSize="10" guides="1" tooltips="1" connect="1" arrows="1" fold="1" page="1" pageScale="1" pageWidth="827" pageHeight="1169" math="0" shadow="0">
      <root>
        <mxCell id="0" />
        <mxCell id="1" parent="0" />
        <mxCell id="kJcnAYGdQIh8JdT8hxRe-1" value="EmpresaProductora" style="swimlane;fontStyle=1;align=center;verticalAlign=top;childLayout=stackLayout;horizontal=1;startSize=26;horizontalStack=0;resizeParent=1;resizeParentMax=0;resizeLast=0;collapsible=1;marginBottom=0;whiteSpace=wrap;html=1;" vertex="1" parent="1">
          <mxGeometry x="140" y="70" width="160" height="240" as="geometry" />
        </mxCell>
        <mxCell id="kJcnAYGdQIh8JdT8hxRe-2" value="- nomEmpresa String&lt;br&gt;- idEmpresa int&lt;br&gt;- residuo Residuo" style="text;strokeColor=none;fillColor=none;align=left;verticalAlign=top;spacingLeft=4;spacingRight=4;overflow=hidden;rotatable=0;points=[[0,0.5],[1,0.5]];portConstraint=eastwest;whiteSpace=wrap;html=1;" vertex="1" parent="kJcnAYGdQIh8JdT8hxRe-1">
          <mxGeometry y="26" width="160" height="64" as="geometry" />
        </mxCell>
        <mxCell id="kJcnAYGdQIh8JdT8hxRe-3" value="" style="line;strokeWidth=1;fillColor=none;align=left;verticalAlign=middle;spacingTop=-1;spacingLeft=3;spacingRight=3;rotatable=0;labelPosition=right;points=[];portConstraint=eastwest;strokeColor=inherit;" vertex="1" parent="kJcnAYGdQIh8JdT8hxRe-1">
          <mxGeometry y="90" width="160" height="20" as="geometry" />
        </mxCell>
        <mxCell id="kJcnAYGdQIh8JdT8hxRe-4" value="+ EmpresaProductora()&lt;br&gt;+ getResiduo() Residuo&lt;br&gt;+ setResiduo(Residuo) void&lt;br&gt;+ getNomEmpresa() string&lt;br&gt;+ setNombreEmpresa() void&lt;br&gt;+ getIdEmpresa() int&lt;br&gt;+ setIdEmpresa() void" style="text;strokeColor=none;fillColor=none;align=left;verticalAlign=top;spacingLeft=4;spacingRight=4;overflow=hidden;rotatable=0;points=[[0,0.5],[1,0.5]];portConstraint=eastwest;whiteSpace=wrap;html=1;" vertex="1" parent="kJcnAYGdQIh8JdT8hxRe-1">
          <mxGeometry y="110" width="160" height="130" as="geometry" />
        </mxCell>
        <mxCell id="kJcnAYGdQIh8JdT8hxRe-27" style="edgeStyle=orthogonalEdgeStyle;rounded=0;orthogonalLoop=1;jettySize=auto;html=1;exitX=0.75;exitY=0;exitDx=0;exitDy=0;entryX=0.5;entryY=0;entryDx=0;entryDy=0;fontFamily=Helvetica;fontSize=12;fontColor=default;startSize=26;" edge="1" parent="1" source="kJcnAYGdQIh8JdT8hxRe-5" target="kJcnAYGdQIh8JdT8hxRe-9">
          <mxGeometry relative="1" as="geometry">
            <Array as="points">
              <mxPoint x="210" y="370" />
              <mxPoint x="210" y="690" />
              <mxPoint x="550" y="690" />
              <mxPoint x="550" y="370" />
              <mxPoint x="690" y="370" />
            </Array>
          </mxGeometry>
        </mxCell>
        <mxCell id="kJcnAYGdQIh8JdT8hxRe-5" value="EmpresaTransporte" style="swimlane;fontStyle=1;align=center;verticalAlign=top;childLayout=stackLayout;horizontal=1;startSize=26;horizontalStack=0;resizeParent=1;resizeParentMax=0;resizeLast=0;collapsible=1;marginBottom=0;whiteSpace=wrap;html=1;" vertex="1" parent="1">
          <mxGeometry x="20" y="370" width="160" height="270" as="geometry" />
        </mxCell>
        <mxCell id="kJcnAYGdQIh8JdT8hxRe-6" value="- idEmpresa int&lt;br&gt;- nomEmpresa String&lt;br&gt;- vehiculo Vehiculo" style="text;strokeColor=none;fillColor=none;align=left;verticalAlign=top;spacingLeft=4;spacingRight=4;overflow=hidden;rotatable=0;points=[[0,0.5],[1,0.5]];portConstraint=eastwest;whiteSpace=wrap;html=1;" vertex="1" parent="kJcnAYGdQIh8JdT8hxRe-5">
          <mxGeometry y="26" width="160" height="44" as="geometry" />
        </mxCell>
        <mxCell id="kJcnAYGdQIh8JdT8hxRe-7" value="" style="line;strokeWidth=1;fillColor=none;align=left;verticalAlign=middle;spacingTop=-1;spacingLeft=3;spacingRight=3;rotatable=0;labelPosition=right;points=[];portConstraint=eastwest;strokeColor=inherit;" vertex="1" parent="kJcnAYGdQIh8JdT8hxRe-5">
          <mxGeometry y="70" width="160" height="58" as="geometry" />
        </mxCell>
        <mxCell id="kJcnAYGdQIh8JdT8hxRe-8" value="+ EmpresaTransporte()&lt;br&gt;+ getIdEmpresa() int&lt;br&gt;+ setIdEmpresa () void&lt;br&gt;+ getNomEmpresa() String&lt;br&gt;+ setNombreEmpresa() void&lt;br&gt;+ getVehiculo() Vehiculo&lt;br&gt;+ setVehiculo(Vehiculo) void" style="text;strokeColor=none;fillColor=none;align=left;verticalAlign=top;spacingLeft=4;spacingRight=4;overflow=hidden;rotatable=0;points=[[0,0.5],[1,0.5]];portConstraint=eastwest;whiteSpace=wrap;html=1;" vertex="1" parent="kJcnAYGdQIh8JdT8hxRe-5">
          <mxGeometry y="128" width="160" height="142" as="geometry" />
        </mxCell>
        <mxCell id="kJcnAYGdQIh8JdT8hxRe-9" value="Translado" style="swimlane;fontStyle=1;align=center;verticalAlign=top;childLayout=stackLayout;horizontal=1;startSize=26;horizontalStack=0;resizeParent=1;resizeParentMax=0;resizeLast=0;collapsible=1;marginBottom=0;whiteSpace=wrap;html=1;" vertex="1" parent="1">
          <mxGeometry x="610" y="410" width="160" height="550" as="geometry" />
        </mxCell>
        <mxCell id="kJcnAYGdQIh8JdT8hxRe-10" value="- idTranslado int&lt;br&gt;- fechaEnviado Date&lt;br&gt;- fechaRecibido Date&lt;br&gt;- origen String&lt;br&gt;- destino String&lt;br&gt;- et EmpresaTransporte&lt;br&gt;- residuo Residuo&lt;br&gt;- ep EmpresaProductora" style="text;strokeColor=none;fillColor=none;align=left;verticalAlign=top;spacingLeft=4;spacingRight=4;overflow=hidden;rotatable=0;points=[[0,0.5],[1,0.5]];portConstraint=eastwest;whiteSpace=wrap;html=1;" vertex="1" parent="kJcnAYGdQIh8JdT8hxRe-9">
          <mxGeometry y="26" width="160" height="144" as="geometry" />
        </mxCell>
        <mxCell id="kJcnAYGdQIh8JdT8hxRe-11" value="" style="line;strokeWidth=1;fillColor=none;align=left;verticalAlign=middle;spacingTop=-1;spacingLeft=3;spacingRight=3;rotatable=0;labelPosition=right;points=[];portConstraint=eastwest;strokeColor=inherit;" vertex="1" parent="kJcnAYGdQIh8JdT8hxRe-9">
          <mxGeometry y="170" width="160" height="40" as="geometry" />
        </mxCell>
        <mxCell id="kJcnAYGdQIh8JdT8hxRe-12" value="+ Translado()&lt;br&gt;+ getIdTranslado() int&lt;br&gt;+ setIdTranslado () void&lt;br&gt;+ getFechaEnviado() Date&lt;br&gt;+ setFechaEnviado() void&lt;br&gt;+ getFechaRecibido() Date&lt;br&gt;+ setFechaRecibido() void&lt;br&gt;+ getOrigen() Sring&lt;br&gt;+ setOrigen() void&lt;br&gt;+ getDestino() String&lt;br&gt;+ setDestino() void&lt;br&gt;+ getEt() EmpresaTransporte&lt;br&gt;+ setEt(EmpresaTransporte) void&lt;br&gt;+ getResiduo() Residuo&lt;br&gt;+ setResiduo() void&lt;br&gt;+ getEp() EmpresaProductora&lt;br&gt;+ setEp(EmpresaProductora) void&lt;br&gt;" style="text;strokeColor=none;fillColor=none;align=left;verticalAlign=top;spacingLeft=4;spacingRight=4;overflow=hidden;rotatable=0;points=[[0,0.5],[1,0.5]];portConstraint=eastwest;whiteSpace=wrap;html=1;" vertex="1" parent="kJcnAYGdQIh8JdT8hxRe-9">
          <mxGeometry y="210" width="160" height="340" as="geometry" />
        </mxCell>
        <mxCell id="kJcnAYGdQIh8JdT8hxRe-24" style="edgeStyle=orthogonalEdgeStyle;rounded=0;orthogonalLoop=1;jettySize=auto;html=1;exitX=0;exitY=0;exitDx=0;exitDy=0;entryX=0.5;entryY=0;entryDx=0;entryDy=0;fontFamily=Helvetica;fontSize=12;fontColor=default;startSize=26;" edge="1" parent="1" source="kJcnAYGdQIh8JdT8hxRe-13" target="kJcnAYGdQIh8JdT8hxRe-1">
          <mxGeometry relative="1" as="geometry">
            <Array as="points">
              <mxPoint x="530" y="70" />
              <mxPoint x="530" y="50" />
              <mxPoint x="220" y="50" />
            </Array>
          </mxGeometry>
        </mxCell>
        <mxCell id="kJcnAYGdQIh8JdT8hxRe-29" style="edgeStyle=orthogonalEdgeStyle;rounded=0;orthogonalLoop=1;jettySize=auto;html=1;exitX=0.5;exitY=0;exitDx=0;exitDy=0;entryX=0.5;entryY=0;entryDx=0;entryDy=0;fontFamily=Helvetica;fontSize=12;fontColor=default;startSize=26;" edge="1" parent="1" source="kJcnAYGdQIh8JdT8hxRe-13" target="kJcnAYGdQIh8JdT8hxRe-9">
          <mxGeometry relative="1" as="geometry">
            <Array as="points">
              <mxPoint x="550" y="70" />
              <mxPoint x="550" y="50" />
              <mxPoint x="690" y="50" />
            </Array>
          </mxGeometry>
        </mxCell>
        <mxCell id="kJcnAYGdQIh8JdT8hxRe-13" value="Residuo" style="swimlane;fontStyle=1;align=center;verticalAlign=top;childLayout=stackLayout;horizontal=1;startSize=26;horizontalStack=0;resizeParent=1;resizeParentMax=0;resizeLast=0;collapsible=1;marginBottom=0;whiteSpace=wrap;html=1;" vertex="1" parent="1">
          <mxGeometry x="450" y="70" width="160" height="260" as="geometry" />
        </mxCell>
        <mxCell id="kJcnAYGdQIh8JdT8hxRe-14" value="- idResiduo int&lt;br&gt;- compuestos String[]&lt;br&gt;- translados Translado[]" style="text;strokeColor=none;fillColor=none;align=left;verticalAlign=top;spacingLeft=4;spacingRight=4;overflow=hidden;rotatable=0;points=[[0,0.5],[1,0.5]];portConstraint=eastwest;whiteSpace=wrap;html=1;" vertex="1" parent="kJcnAYGdQIh8JdT8hxRe-13">
          <mxGeometry y="26" width="160" height="54" as="geometry" />
        </mxCell>
        <mxCell id="kJcnAYGdQIh8JdT8hxRe-15" value="" style="line;strokeWidth=1;fillColor=none;align=left;verticalAlign=middle;spacingTop=-1;spacingLeft=3;spacingRight=3;rotatable=0;labelPosition=right;points=[];portConstraint=eastwest;strokeColor=inherit;" vertex="1" parent="kJcnAYGdQIh8JdT8hxRe-13">
          <mxGeometry y="80" width="160" height="30" as="geometry" />
        </mxCell>
        <mxCell id="kJcnAYGdQIh8JdT8hxRe-16" value="+ Residuo()&lt;br&gt;+ getCompuestos() String[]&lt;br&gt;+ getIdResiduo() int&lt;br&gt;+ setIdResiduo() void&lt;br&gt;+ setCompuestos() void&lt;br&gt;+ getTranslados() translado[]&lt;br&gt;+ setTranslados() void&lt;br&gt;+ mostrar() void" style="text;strokeColor=none;fillColor=none;align=left;verticalAlign=top;spacingLeft=4;spacingRight=4;overflow=hidden;rotatable=0;points=[[0,0.5],[1,0.5]];portConstraint=eastwest;whiteSpace=wrap;html=1;" vertex="1" parent="kJcnAYGdQIh8JdT8hxRe-13">
          <mxGeometry y="110" width="160" height="150" as="geometry" />
        </mxCell>
        <mxCell id="kJcnAYGdQIh8JdT8hxRe-26" style="edgeStyle=orthogonalEdgeStyle;rounded=0;orthogonalLoop=1;jettySize=auto;html=1;exitX=0.5;exitY=0;exitDx=0;exitDy=0;entryX=0.5;entryY=0;entryDx=0;entryDy=0;fontFamily=Helvetica;fontSize=12;fontColor=default;startSize=26;" edge="1" parent="1" source="kJcnAYGdQIh8JdT8hxRe-17" target="kJcnAYGdQIh8JdT8hxRe-5">
          <mxGeometry relative="1" as="geometry">
            <Array as="points">
              <mxPoint x="380" y="350" />
              <mxPoint x="100" y="350" />
            </Array>
          </mxGeometry>
        </mxCell>
        <mxCell id="kJcnAYGdQIh8JdT8hxRe-17" value="Vehiculo" style="swimlane;fontStyle=1;align=center;verticalAlign=top;childLayout=stackLayout;horizontal=1;startSize=26;horizontalStack=0;resizeParent=1;resizeParentMax=0;resizeLast=0;collapsible=1;marginBottom=0;whiteSpace=wrap;html=1;" vertex="1" parent="1">
          <mxGeometry x="300" y="390" width="160" height="208" as="geometry" />
        </mxCell>
        <mxCell id="kJcnAYGdQIh8JdT8hxRe-18" value="- km int&lt;br&gt;- nomVehiculo String" style="text;strokeColor=none;fillColor=none;align=left;verticalAlign=top;spacingLeft=4;spacingRight=4;overflow=hidden;rotatable=0;points=[[0,0.5],[1,0.5]];portConstraint=eastwest;whiteSpace=wrap;html=1;" vertex="1" parent="kJcnAYGdQIh8JdT8hxRe-17">
          <mxGeometry y="26" width="160" height="34" as="geometry" />
        </mxCell>
        <mxCell id="kJcnAYGdQIh8JdT8hxRe-19" value="" style="line;strokeWidth=1;fillColor=none;align=left;verticalAlign=middle;spacingTop=-1;spacingLeft=3;spacingRight=3;rotatable=0;labelPosition=right;points=[];portConstraint=eastwest;strokeColor=inherit;" vertex="1" parent="kJcnAYGdQIh8JdT8hxRe-17">
          <mxGeometry y="60" width="160" height="48" as="geometry" />
        </mxCell>
        <mxCell id="kJcnAYGdQIh8JdT8hxRe-20" value="+ Vehiculo()&lt;br&gt;+ getKm() int&lt;br&gt;+ setKm() void&lt;br&gt;+ getNomVehiculo() Sring&lt;br&gt;+ setNomVehiculo() void&lt;br&gt;" style="text;strokeColor=none;fillColor=none;align=left;verticalAlign=top;spacingLeft=4;spacingRight=4;overflow=hidden;rotatable=0;points=[[0,0.5],[1,0.5]];portConstraint=eastwest;whiteSpace=wrap;html=1;" vertex="1" parent="kJcnAYGdQIh8JdT8hxRe-17">
          <mxGeometry y="108" width="160" height="100" as="geometry" />
        </mxCell>
        <mxCell id="kJcnAYGdQIh8JdT8hxRe-28" style="edgeStyle=orthogonalEdgeStyle;rounded=0;orthogonalLoop=1;jettySize=auto;html=1;exitX=1;exitY=0.5;exitDx=0;exitDy=0;entryX=0.5;entryY=0;entryDx=0;entryDy=0;fontFamily=Helvetica;fontSize=12;fontColor=default;startSize=26;" edge="1" parent="1" source="kJcnAYGdQIh8JdT8hxRe-2" target="kJcnAYGdQIh8JdT8hxRe-9">
          <mxGeometry relative="1" as="geometry">
            <Array as="points">
              <mxPoint x="300" y="340" />
              <mxPoint x="690" y="340" />
            </Array>
          </mxGeometry>
        </mxCell>
      </root>
    </mxGraphModel>
  </diagram>
</mxfile>
